<svg width="55" height="55" viewBox="0 0 55 55" fill="none" xmlns="http://www.w3.org/2000/svg">
<g clip-path="url(#clip0_125_1592)">
<path d="M3.39365 55.0018C3.26047 54.9559 3.12873 54.9042 2.99265 54.8669C2.14645 54.646 1.39706 54.1553 0.859988 53.4707C0.322921 52.786 0.0279906 51.9453 0.0206576 51.0781C-0.00105695 48.8946 0.0206576 46.7112 0.0206576 44.5277C0.0206576 33.9317 0.0163152 23.3357 0.00762939 12.7396C0.00762939 11.305 0.478111 10.1573 1.51172 9.15312C4.12905 6.60621 6.72514 4.03874 9.3 1.45071C10.2873 0.459392 11.428 0.00318671 12.8395 0.00605593C21.7801 0.027575 30.7221 0.0160984 39.6627 0.0175331C42.4595 0.0175331 44.1041 1.65155 44.1055 4.43039C44.1055 7.72425 44.1055 11.0176 44.1055 14.3105C44.1168 14.5244 44.0978 14.7388 44.049 14.9475C43.9956 15.1221 43.883 15.2732 43.7302 15.375C43.5774 15.4768 43.3938 15.5232 43.2104 15.5064C43.0271 15.4895 42.8552 15.4104 42.7239 15.2824C42.5926 15.1544 42.51 14.9854 42.4899 14.804C42.4771 14.6255 42.4738 14.4464 42.4798 14.2675C42.4798 10.9564 42.4798 7.64534 42.4798 4.33427C42.4798 2.58692 41.5229 1.63577 39.7713 1.63577C30.7583 1.63577 21.7448 1.63577 12.7309 1.63577C11.9159 1.63577 11.9159 1.63577 11.9159 2.45637C11.9159 4.54946 11.9159 6.64399 11.9159 8.73852C11.9159 10.6824 10.7751 11.8057 8.8136 11.81C6.65951 11.81 4.50591 11.81 2.3528 11.81H1.68689C1.67241 12.0467 1.64925 12.2519 1.64925 12.4585C1.64925 25.2743 1.64925 38.0901 1.64925 50.906C1.64925 52.4066 2.65246 53.4007 4.16379 53.4007C16.0904 53.4007 28.0174 53.4007 39.945 53.4007C41.4491 53.4007 42.4538 52.3965 42.4798 50.906C42.4798 50.5832 42.4697 50.2604 42.4798 49.939C42.5059 49.4685 42.8316 49.1328 43.263 49.1443C43.7219 49.1572 44.0317 49.4097 44.0809 49.8616C44.3632 52.4209 43.2557 54.4236 40.789 54.9487C40.738 54.9668 40.6894 54.9909 40.6442 55.0204L3.39365 55.0018ZM2.91448 10.1875C4.90932 10.1875 6.85784 10.1875 8.8078 10.1875C9.87182 10.1875 10.2786 9.77861 10.2815 8.71556C10.2873 6.94526 10.2873 5.17591 10.2815 3.40751C10.2815 3.24684 10.2583 3.08473 10.2482 2.9384L2.91448 10.1875Z" fill="#F7B437"/>
<path d="M37.6067 40.0413C35.7696 39.5421 34.9836 38.6325 34.7823 36.8264C34.7143 36.2038 34.4074 35.6988 33.8153 35.5094C33.3299 35.3463 32.8894 35.0736 32.5284 34.7129C32.1675 34.3522 31.896 33.9134 31.7355 33.431C31.5749 32.9486 31.5296 32.4359 31.6031 31.9331C31.6767 31.4304 31.867 30.9515 32.1592 30.5342C32.5819 29.9202 32.427 29.2889 32.0579 28.6692C31.169 27.1844 31.5194 25.3925 32.8772 24.4084C33.1464 24.2289 33.433 24.0765 33.7328 23.9536C34.036 23.8327 34.2976 23.6276 34.4861 23.3629C34.6745 23.0982 34.7819 22.7853 34.7954 22.4616C34.9807 20.3183 36.7381 19.0186 38.8487 19.4734C39.6507 19.6484 40.2457 19.4418 40.7828 18.8493C42.2174 17.2626 44.37 17.2827 45.8046 18.8823C46.3084 19.4447 46.8846 19.6498 47.6446 19.4834C49.7929 19.0114 51.4938 20.2294 51.7443 22.4043C51.8326 23.1689 52.1901 23.6782 52.9212 23.9909C54.8914 24.8331 55.5646 26.886 54.4774 28.7108C54.0779 29.3822 54.0677 30.0019 54.4658 30.6762C55.5689 32.5412 54.9001 34.5712 52.8937 35.4319C52.2321 35.7189 51.8282 36.165 51.7689 36.8752C51.6357 38.4891 50.7975 39.5134 49.2254 39.9811C49.0936 40.0212 48.9663 40.324 48.9648 40.5047C48.946 42.6351 48.9532 44.7641 48.9518 46.8945C48.9557 47.0912 48.9494 47.288 48.933 47.4841C48.7969 48.7594 47.4969 49.4481 46.362 48.8168C45.4934 48.3348 44.6494 47.8126 43.8243 47.2689C43.4421 47.0164 43.1612 46.982 42.7675 47.2517C42.0437 47.7466 41.2576 48.167 40.5135 48.6418C39.8577 49.0607 39.186 49.2257 38.4752 48.8226C37.7876 48.4324 37.5893 47.7983 37.5965 47.0451C37.6125 44.8932 37.5965 42.7499 37.5965 40.6023L37.6067 40.0413ZM53.3772 27.1399C53.3352 26.2576 52.9907 25.7483 52.3219 25.4815C50.9799 24.9478 50.2735 23.9723 50.1287 22.5549C50.0071 21.3627 49.1877 20.7932 48.0094 21.0572C46.6443 21.3627 45.518 20.9955 44.5973 19.9568C43.8098 19.0674 42.7516 19.0559 41.9785 19.9382C41.0477 21.0012 39.907 21.3728 38.523 21.0514C37.3794 20.7903 36.5065 21.4345 36.4167 22.5836C36.3125 23.9178 35.6495 24.8617 34.4146 25.4069C33.1508 25.965 32.8729 26.8415 33.5678 28.0451C34.1917 29.1268 34.2713 30.2645 33.5765 31.3003C32.8599 32.3691 33.2565 33.6057 34.5029 34.0633C35.661 34.4937 36.2748 35.4463 36.4022 36.66C36.547 38.0515 37.3085 38.6239 38.6837 38.3313C39.9214 38.0673 40.9768 38.4001 41.8338 39.3111C42.8471 40.3942 43.7041 40.4029 44.7088 39.3298C45.5629 38.4159 46.6124 38.0659 47.8501 38.3255C49.2456 38.6125 49.9782 38.1103 50.1533 36.6872C50.314 35.3789 51.0074 34.4808 52.2234 33.9615C53.3468 33.4823 53.6827 32.501 53.0602 31.4724C52.3364 30.286 52.345 29.1154 53.0602 27.9246C53.1901 27.6723 53.2962 27.4087 53.3772 27.137V27.1399ZM39.283 39.8749V47.4697C39.5233 47.3349 39.6956 47.2459 39.8621 47.1469C40.6626 46.662 41.4661 46.18 42.2594 45.6836C42.9426 45.2533 43.6143 45.2533 44.2962 45.675C45.1561 46.203 46.0174 46.729 46.8802 47.2531C46.9931 47.322 47.1234 47.365 47.2971 47.4453V39.8835C47.0339 39.8357 46.7623 39.8629 46.514 39.9619C46.2657 40.0609 46.0508 40.2278 45.8944 40.443C45.5862 40.8365 45.1914 41.1551 44.7402 41.3745C44.2889 41.5939 43.793 41.7083 43.2904 41.709C42.7878 41.7097 42.2916 41.5966 41.8397 41.3785C41.3878 41.1604 40.9922 40.8429 40.6829 40.4502C40.5247 40.2368 40.3107 40.0702 40.064 39.9683C39.8174 39.8664 39.5474 39.8332 39.283 39.872V39.8749Z" fill="#F7B437"/>
<path d="M26.9883 5.57631H35.1298C36.4804 5.57631 37.1767 6.26062 37.1825 7.58476C37.1825 8.31833 37.1825 9.05189 37.1825 9.78545C37.1825 11.0895 36.4587 11.7939 35.1225 11.8011C33.0423 11.8011 30.9606 11.8011 28.8803 11.8011C27.2879 11.8011 25.6955 11.8197 24.1031 11.7839C23.77 11.7729 23.4524 11.6418 23.21 11.4152C22.8292 11.0049 23.1289 10.322 23.6906 10.2158C23.8877 10.1897 24.0869 10.1815 24.2855 10.1914C27.8134 10.1914 31.3413 10.1785 34.8692 10.2029C35.4222 10.2029 35.6133 10.0595 35.5641 9.51001C35.5112 8.95749 35.5112 8.40125 35.5641 7.84873C35.6234 7.27489 35.3846 7.1759 34.8605 7.17877C31.2602 7.20029 27.6585 7.19025 24.0583 7.19025C22.3761 7.19025 20.6925 7.20172 19.0104 7.18164C18.6007 7.18164 18.4197 7.26772 18.4429 7.71388C18.4776 8.39245 18.4617 9.07389 18.4429 9.75246C18.4429 10.0795 18.5703 10.2044 18.8931 10.1929C19.2724 10.18 19.6531 10.18 20.0324 10.1929C20.5116 10.2144 20.8402 10.5257 20.8604 10.9475C20.8671 11.0508 20.853 11.1545 20.819 11.2524C20.7849 11.3504 20.7316 11.4406 20.6622 11.518C20.5927 11.5954 20.5084 11.6583 20.4142 11.7032C20.3201 11.7481 20.2178 11.7741 20.1135 11.7796C19.5186 11.8222 18.9211 11.8102 18.3285 11.7437C17.9194 11.6941 17.5427 11.4982 17.2689 11.1929C16.9952 10.8876 16.8433 10.4937 16.8418 10.0853C16.8114 9.17431 16.8114 8.26047 16.8418 7.34805C16.8708 6.29218 17.6119 5.58779 18.6904 5.58349C21.4525 5.57058 24.2204 5.57631 26.9883 5.57631Z" fill="#F7B437"/>
<path d="M17.4064 32.4379H7.37425C7.19404 32.4493 7.01313 32.4426 6.83428 32.4178C6.41013 32.3303 6.15245 32.0534 6.15679 31.6302C6.15679 31.1855 6.42171 30.8986 6.88061 30.8383C7.04279 30.8237 7.20577 30.8199 7.36846 30.8269H27.3907C27.5529 30.8199 27.7154 30.8237 27.8771 30.8383C28.3114 30.8986 28.5705 31.1396 28.6009 31.5757C28.6313 32.042 28.3736 32.316 27.9336 32.4164C27.755 32.4438 27.5738 32.451 27.3936 32.4379H17.4064Z" fill="#F7B437"/>
<path d="M17.3861 26.7669H7.39742C7.21688 26.7732 7.03612 26.7693 6.85601 26.7554C6.67254 26.7445 6.49952 26.6671 6.36982 26.538C6.24012 26.409 6.16277 26.2372 6.15246 26.0553C6.11859 25.8755 6.15533 25.6897 6.25516 25.5358C6.355 25.3819 6.51038 25.2717 6.68953 25.2276C6.8986 25.1729 7.11479 25.1496 7.33083 25.1587C14.0228 25.1587 20.7152 25.1587 27.4081 25.1587C27.6238 25.1485 27.8399 25.1697 28.0494 25.2218C28.2287 25.2641 28.3849 25.3725 28.4864 25.525C28.5878 25.6774 28.6267 25.8625 28.5951 26.0424C28.5899 26.224 28.5168 26.3972 28.39 26.5284C28.2632 26.6596 28.0918 26.7395 27.909 26.7526C27.7291 26.771 27.5481 26.7758 27.3675 26.7669H17.3861Z" fill="#F7B437"/>
<path d="M17.415 36.4921C20.7436 36.4921 24.0732 36.4921 27.4037 36.4921C27.6194 36.4921 27.8945 36.439 28.0392 36.5466C28.2738 36.7202 28.572 37.0071 28.5691 37.2439C28.5691 37.5093 28.3027 37.8177 28.0682 38.0157C27.9234 38.1391 27.618 38.0989 27.3849 38.0989C20.7113 38.0989 14.0377 38.0989 7.36412 38.0989C7.27292 38.0989 7.18316 38.0989 7.09196 38.0989C6.51291 38.0688 6.14087 37.7474 6.14521 37.2783C6.14955 36.8092 6.5158 36.4936 7.11078 36.4921C10.2753 36.4864 13.4403 36.4864 16.6058 36.4921H17.415Z" fill="#F7B437"/>
<path d="M17.3456 19.5107H27.3835C27.5819 19.5029 27.7807 19.514 27.977 19.5437C28.1497 19.566 28.3082 19.6501 28.4228 19.78C28.5374 19.91 28.6002 20.0769 28.5995 20.2495C28.6278 20.4297 28.5857 20.6138 28.4819 20.7643C28.3781 20.9149 28.2204 21.0206 28.0407 21.0601C27.8296 21.1085 27.6129 21.1283 27.3965 21.1189C20.7229 21.1189 14.0493 21.1189 7.3757 21.1189C6.552 21.1189 6.14666 20.8506 6.14087 20.3141C6.13508 19.7775 6.53463 19.5092 7.36267 19.5092L17.3456 19.5107Z" fill="#F7B437"/>
<path d="M12.205 44.7842C13.8684 44.7842 15.5346 44.7842 17.195 44.7842C17.8479 44.7842 18.1997 45.0711 18.2084 45.5675C18.217 46.0638 17.8494 46.3909 17.224 46.3909C13.8606 46.3909 10.4978 46.3909 7.13541 46.3909C6.72428 46.3909 6.33052 46.2934 6.22918 45.873C6.19858 45.7327 6.19692 45.5876 6.22428 45.4466C6.25164 45.3056 6.30748 45.1715 6.38843 45.0524C6.53319 44.8731 6.89365 44.7928 7.16001 44.7899C8.84216 44.7756 10.5243 44.7842 12.205 44.7842Z" fill="#F7B437"/>
<path d="M43.306 22.9595C44.6501 22.9694 45.961 23.3736 47.0735 24.1211C48.186 24.8685 49.0501 25.9258 49.557 27.1594C50.0638 28.3931 50.1906 29.7479 49.9213 31.0528C49.652 32.3578 48.9987 33.5545 48.0439 34.4919C47.0891 35.4294 45.8755 36.0656 44.5562 36.3202C43.2369 36.5749 41.8711 36.4366 40.631 35.9229C39.3909 35.4091 38.3322 34.5429 37.5884 33.4335C36.8445 32.3241 36.4489 31.0212 36.4515 29.6892C36.4532 28.8006 36.6321 27.9211 36.9779 27.1012C37.3238 26.2814 37.8298 25.5374 38.4668 24.912C39.1038 24.2866 39.8592 23.7921 40.6897 23.457C41.5202 23.1219 42.4094 22.9529 43.306 22.9595ZM43.2756 24.5734C42.2541 24.5777 41.2568 24.8815 40.4092 25.4466C39.5617 26.0117 38.9019 26.8127 38.5131 27.7488C38.1242 28.6849 38.0237 29.7141 38.2241 30.7067C38.4245 31.6994 38.917 32.611 39.6394 33.3267C40.3618 34.0424 41.2819 34.5302 42.2836 34.7285C43.2853 34.9269 44.3238 34.827 45.2683 34.4414C46.2127 34.0557 47.0209 33.4017 47.5909 32.5616C48.1609 31.7216 48.4672 30.7331 48.4712 29.7208C48.4716 29.0446 48.3374 28.375 48.0764 27.7502C47.8155 27.1254 47.4327 26.5578 46.9502 26.0797C46.4676 25.6016 45.8947 25.2225 45.2642 24.9641C44.6337 24.7056 43.9579 24.5728 43.2756 24.5734Z" fill="#F7B437"/>
</g>
<defs>
<clipPath id="clip0_125_1592">
<rect width="55" height="55" fill="white"/>
</clipPath>
</defs>
</svg>
